<svg width="1870" height="1059" viewBox="0 0 1870 1059" fill="none" xmlns="http://www.w3.org/2000/svg">
<path d="M194.865 877.841L59.1142 724.632L51.2098 732.282C42.5868 740.627 37.2747 748.319 35.2736 755.359C33.5121 762.166 33.5007 770.063 35.2395 779.049L6.12475 786.352C-6.67208 747.247 0.582584 714.48 27.8887 688.054L156.874 563.222C164.779 555.572 169.844 548.583 172.069 542.255C174.533 535.694 175.607 527.697 175.29 518.262L204.312 516.616C207.96 524.219 209.648 536.269 209.378 552.766C208.877 569.023 203.217 583.546 192.4 596.335C219.043 624.823 257.632 665.176 308.168 717.393L338.603 694.2C346.021 701.864 349.638 711.353 349.453 722.665C349.275 733.506 343.078 744.838 330.863 756.66C318.647 768.483 307.014 773.478 295.964 771.648C285.154 769.585 271.984 760.529 256.452 744.481C240.689 728.193 206.164 691.561 152.878 634.584L101.499 684.308L237.261 836.81L194.865 877.841Z" fill="black" fill-opacity="0.05"/>
<path d="M701.225 680.834L678.38 752.795C673.841 767.092 662.025 770.16 642.932 762L656.799 703.452L519.073 659.728L606.675 858.031L406.692 960.838L569.676 1012.58L589.979 961.846C610.282 966.193 618.164 975.515 613.625 989.812L591.688 1058.91L351.978 982.812C347.827 972.752 348.072 960.414 352.712 945.799L540.418 846.964L450.296 638.418C454.936 623.803 461.853 613.584 471.046 607.759L701.225 680.834Z" fill="black" fill-opacity="0.05"/>
<path d="M291.752 651.259L284.301 615.784C298.758 610.127 311.117 604.148 320.788 597.043C343.756 580.169 352.39 556.453 340.121 512.73C326.882 465.997 294.704 402.776 262.337 338.454C229.189 272.224 195.449 205.187 180.672 152.139C164.061 92.372 179.291 48.9202 214.347 23.1649C229.255 12.2115 247.93 4.69548 268.678 0L276.128 35.4753C261.672 41.1329 249.312 47.1112 239.641 54.2161C216.674 71.0902 208.039 94.8062 220.604 138.932C233.63 187.063 266.589 252.192 299.737 318.422C332.104 382.745 364.766 447.47 379.461 498.718C396.072 558.484 381.139 602.339 346.083 628.095C331.174 639.048 312.499 646.564 291.752 651.259Z" fill="black" fill-opacity="0.05"/>
<path d="M875.317 759.045L903.134 787.789L845.288 843.772L902.315 902.695L872.493 931.556L815.467 872.633L756.543 929.659L728.726 900.915L787.649 843.889L730.623 784.965L760.444 756.105L817.471 815.028L875.317 759.045Z" fill="black" fill-opacity="0.05"/>
<path d="M1419.69 585.71C1419.52 596.551 1415.48 605.796 1407.57 613.446C1399.67 621.096 1390.29 624.832 1379.45 624.655C1368.61 624.477 1359.37 620.436 1351.72 612.532C1344.07 604.628 1340.33 595.255 1340.51 584.414C1340.69 573.573 1344.73 564.328 1352.63 556.678C1360.54 549.028 1369.91 545.292 1380.75 545.469C1391.59 545.647 1400.84 549.688 1408.49 557.592C1416.14 565.496 1419.87 574.869 1419.69 585.71ZM1542.09 712.181C1541.91 723.021 1537.87 732.267 1529.97 739.917C1522.07 747.566 1512.69 751.303 1501.85 751.125C1491.01 750.948 1481.77 746.907 1474.12 739.003C1466.47 731.098 1462.73 721.725 1462.91 710.885C1463.08 700.044 1467.13 690.798 1475.03 683.149C1482.93 675.499 1492.31 671.762 1503.15 671.94C1513.99 672.117 1523.23 676.158 1530.88 684.063C1538.53 691.967 1542.27 701.34 1542.09 712.181ZM1353.38 705.556L1499.97 563.686L1527.79 592.429L1381.2 734.299L1353.38 705.556Z" fill="black" fill-opacity="0.05"/>
<path d="M1077.92 791.827L1278.28 830.188L1270.76 869.474L1070.4 831.113L1077.92 791.827ZM1092.78 714.236L1293.14 752.597L1285.62 791.884L1085.26 753.522L1092.78 714.236Z" fill="black" fill-opacity="0.05"/>
<path d="M1662.07 710.437C1684.41 700.791 1707.48 700.816 1731.27 710.512C1755.24 719.77 1773.43 738.782 1785.85 767.548C1798.27 796.315 1801.45 823.443 1795.39 848.933C1789.34 874.423 1773.61 892.651 1748.21 903.619C1733.52 909.961 1718.81 911.227 1704.1 907.415C1689.38 903.603 1668.67 893.483 1641.97 877.055C1640.75 925.51 1622.23 957.468 1586.43 972.928C1568.37 980.724 1550.69 981.822 1533.39 976.223C1502.76 965.845 1479.92 943.213 1464.86 908.326C1453.63 882.314 1451.7 856.824 1459.07 831.856C1466.31 806.581 1482.94 788.328 1508.95 777.097C1525.48 769.961 1541.1 768.3 1555.81 772.111C1570.4 775.617 1587.71 783.755 1607.75 796.525C1608.7 776.87 1613.86 759.392 1623.23 744.091C1632.6 728.791 1645.54 717.573 1662.07 710.437ZM1603.3 851.817C1578.39 835.34 1560.4 824.775 1549.31 820.122C1538.53 815.336 1527.48 815.388 1516.16 820.277C1505.14 825.034 1498.36 834.135 1495.81 847.578C1493.27 861.022 1495.96 876.925 1503.89 895.287C1511.81 913.648 1522.24 926.028 1535.17 932.427C1548.28 938.388 1561.25 938.594 1574.11 933.044C1586.96 927.494 1596.39 917.796 1602.39 903.948C1608.7 889.969 1612.25 874.64 1613.03 857.962L1603.3 851.817ZM1640.76 818.758C1673.39 841.341 1695.38 855.266 1706.73 860.531C1718.38 865.664 1729.87 865.786 1741.2 860.897C1752.52 856.008 1758.69 847.172 1759.7 834.389C1760.89 821.167 1757.79 805.988 1750.39 788.851C1742.86 771.407 1732.73 758.895 1720.02 751.313C1707.31 743.732 1693.45 743.179 1678.46 749.654C1654.89 759.828 1642.33 782.863 1640.76 818.758Z" fill="black" fill-opacity="0.05"/>
<path d="M1736.1 305.157L1869.09 468.654L1857.17 492.881L1646.28 488.874L1646.2 442.587L1798.52 448.984L1701.38 330.425L1736.1 305.157ZM1602.54 537.009L1620.19 501.117L1803.24 591.17L1785.58 627.062L1602.54 537.009Z" fill="black" fill-opacity="0.05"/>
</svg>
