<svg width="32" height="32" viewBox="0 0 32 32" fill="none" xmlns="http://www.w3.org/2000/svg">
<rect width="32" height="32" rx="2" fill="white"/>
<path d="M27.1562 23.9531L27.0391 24.0703C26.2656 24.0234 25.0625 24 23.4297 24C21.7578 24 20.5547 24.0234 19.8203 24.0703L19.7148 23.9648V23.168L19.832 23.0508C20.6289 23.0039 21.0859 22.9648 21.2031 22.9336C21.4297 22.8711 21.5625 22.7266 21.6016 22.5C21.7031 21.9375 21.7539 20.7266 21.7539 18.8672V10.9453L19.1406 16.3008C18.9922 16.5977 18.4844 17.6914 17.6172 19.582L15.4727 24.2695H14.6875C14.2812 23.3008 13.7305 22.0781 13.0352 20.6016L11.3945 17.1211L8.32422 10.7344V18.8672C8.32422 20.7266 8.375 21.9375 8.47656 22.5C8.51562 22.7266 8.64844 22.8711 8.875 22.9336C8.99219 22.9648 9.44922 23.0039 10.2461 23.0508L10.3633 23.168V23.9648L10.2461 24.0703C9.34766 24.0234 8.51172 24 7.73828 24C6.83984 24 5.9375 24.0234 5.03125 24.0703L4.91406 23.9648V23.168L5.03125 23.0508C5.82812 23.0039 6.28516 22.9648 6.40234 22.9336C6.62891 22.8711 6.76172 22.7266 6.80078 22.5C6.90234 21.9375 6.95312 20.7266 6.95312 18.8672V12.668C6.95312 10.8086 6.90234 9.59766 6.80078 9.03516C6.76172 8.80859 6.62891 8.66406 6.40234 8.60156C6.28516 8.57031 5.82812 8.53125 5.03125 8.48438L4.91406 8.36719V7.57031L5.03125 7.46484C5.84375 7.51172 6.87109 7.53516 8.11328 7.53516C9.06641 7.53516 9.89844 7.51172 10.6094 7.46484C10.8672 8.05859 11.2344 8.89453 11.7109 9.97266L12.4609 11.5898L16.1875 19.3828L17.9805 15.75L20.7812 9.76172C21.1094 9.05078 21.4297 8.28516 21.7422 7.46484C22.625 7.51172 23.2188 7.53516 23.5234 7.53516C25.0547 7.53516 26.2266 7.51172 27.0391 7.46484L27.1562 7.57031V8.37891L27.0391 8.48438C26.2422 8.53125 25.7852 8.57031 25.668 8.60156C25.4414 8.66406 25.3086 8.80859 25.2695 9.03516C25.168 9.59766 25.1172 10.8086 25.1172 12.668V18.8672C25.1172 20.7266 25.168 21.9375 25.2695 22.5C25.3086 22.7266 25.4414 22.8711 25.668 22.9336C25.7852 22.9648 26.2422 23.0039 27.0391 23.0508L27.1562 23.168V23.9531Z" fill="black"/>
</svg>
