<svg width="100" height="101" viewBox="0 0 100 101" fill="none" xmlns="http://www.w3.org/2000/svg">
<path d="M100 50.0828C100 77.697 77.6142 100.083 50 100.083C22.3858 100.083 0 77.697 0 50.0828C0 22.4685 22.3858 0.0827637 50 0.0827637C77.6142 0.0827637 100 22.4685 100 50.0828Z" fill="#D9D9D9"/>
<path d="M49.8467 49.9294C46.9083 49.9294 44.3928 48.8832 42.3003 46.7907C40.2078 44.6982 39.1616 42.1827 39.1616 39.2444C39.1616 36.306 40.2078 33.7905 42.3003 31.698C44.3928 29.6055 46.9083 28.5593 49.8467 28.5593C52.7851 28.5593 55.3005 29.6055 57.393 31.698C59.4855 33.7905 60.5317 36.306 60.5317 39.2444C60.5317 42.1827 59.4855 44.6982 57.393 46.7907C55.3005 48.8832 52.7851 49.9294 49.8467 49.9294ZM28.4765 71.2996V63.82C28.4765 62.3063 28.8661 60.915 29.6452 59.6462C30.4243 58.3773 31.4594 57.409 32.7505 56.7412C35.5109 55.361 38.3157 54.3259 41.165 53.6358C44.0144 52.9457 46.9083 52.6007 49.8467 52.6007C52.7851 52.6007 55.6789 52.9457 58.5283 53.6358C61.3776 54.3259 64.1825 55.361 66.9428 56.7412C68.2339 57.409 69.269 58.3773 70.0481 59.6462C70.8272 60.915 71.2168 62.3063 71.2168 63.82V71.2996H28.4765ZM33.8191 65.957H65.8743V63.82C65.8743 63.3303 65.7518 62.8851 65.507 62.4844C65.2621 62.0837 64.9393 61.772 64.5386 61.5494C62.1345 60.3474 59.7081 59.4458 57.2594 58.8448C54.8108 58.2437 52.3398 57.9432 49.8467 57.9432C47.3535 57.9432 44.8826 58.2437 42.4339 58.8448C39.9852 59.4458 37.5588 60.3474 35.1547 61.5494C34.754 61.772 34.4312 62.0837 34.1864 62.4844C33.9415 62.8851 33.8191 63.3303 33.8191 63.82V65.957ZM49.8467 44.5869C51.3159 44.5869 52.5736 44.0638 53.6198 43.0175C54.6661 41.9713 55.1892 40.7136 55.1892 39.2444C55.1892 37.7752 54.6661 36.5174 53.6198 35.4712C52.5736 34.4249 51.3159 33.9018 49.8467 33.9018C48.3775 33.9018 47.1197 34.4249 46.0735 35.4712C45.0273 36.5174 44.5041 37.7752 44.5041 39.2444C44.5041 40.7136 45.0273 41.9713 46.0735 43.0175C47.1197 44.0638 48.3775 44.5869 49.8467 44.5869Z" fill="white"/>
</svg>
